<svg xmlns:xlink="http://www.w3.org/1999/xlink" xmlns="http://www.w3.org/2000/svg" xmlns:svg="http://www.w3.org/2000/svg" width="32" height="32" viewBox="0 0 32 32" version="1.1" id="svg1">
  <defs id="defs1"/>
  <g id="layer1">
    <path style="font-size:16.1765px;font-family:Bulo-ExtraBlackItalic;-inkscape-font-specification:Bulo-ExtraBlackItalic;fill:#a12008;stroke-width:10.2656;stroke-linecap:round;stroke-linejoin:round;paint-order:markers fill stroke" d="m 0.37353856,19.332359 -0.129412,1.892651 H 6.6823737 L 6.8603152,18.58824 H 4.0456041 c 0.226471,-0.32353 0.5014715,-0.59853 0.808825,-0.857354 0.2911771,-0.242648 0.5823541,-0.485295 0.8573546,-0.744119 0.1779415,-0.161765 0.3720595,-0.355883 0.5661775,-0.582354 0.194118,-0.226471 0.388236,-0.501472 0.550001,-0.792649 0.161765,-0.291177 0.291177,-0.59853 0.4044125,-0.938237 0.097059,-0.339706 0.161765,-0.695589 0.161765,-1.067649 0,-2.022062 -1.229414,-3.041182 -3.6720656,-3.041182 -0.291177,0 -0.5661775,0.01618 -0.8573545,0.04853 -0.291177,0.03235 -0.550001,0.08088 -0.808825,0.129412 -0.258824,0.04853 -0.5014715,0.09706 -0.711766,0.161765 -0.226471,0.06471 -0.38823603,0.145588 -0.51764803,0.210294 l 0.58235403,2.410299 c 0.2102945,-0.08088 0.4367655,-0.145589 0.6955895,-0.210295 0.258824,-0.04853 0.5014715,-0.08088 0.7279425,-0.08088 0.3073535,0 0.550001,0.09706 0.7279425,0.258824 0.1779415,0.161765 0.2750005,0.420589 0.2750005,0.760295 0,0.210295 -0.064706,0.420589 -0.1779415,0.614707 -0.1132355,0.194118 -0.258824,0.388236 -0.420589,0.582354 -0.1779415,0.194118 -0.3720595,0.388236 -0.582354,0.582354 -0.2102945,0.194118 -0.4044125,0.37206 -0.5985305,0.566178 -0.355883,0.339706 -0.679413,0.744119 -0.97059,1.213237 -0.30735353,0.469119 -0.55000104,0.97059 -0.71176604,1.520591 z M 8.2999958,18.669123 8.1220543,21.22501 h 6.1470697 l 0.177942,-2.555887 H 13.03971 l 0.550001,-7.958838 h -2.313239 c -0.194118,0.161765 -0.420589,0.32353 -0.679413,0.501471 -0.258824,0.177942 -0.533825,0.355883 -0.7926487,0.517648 -0.2750005,0.161765 -0.5338245,0.32353 -0.776472,0.452942 -0.258824,0.129412 -0.452942,0.226471 -0.614707,0.291177 l -0.161765,2.572064 h 0.161765 c 0.097059,-0.03235 0.226471,-0.06471 0.3720595,-0.129412 0.1455885,-0.04853 0.291177,-0.113236 0.452942,-0.177942 0.1455885,-0.06471 0.291177,-0.129412 0.4367655,-0.194118 0.129412,-0.06471 0.258824,-0.145588 0.3882357,-0.226471 l -0.3073532,4.351479 z m 10.9352902,2.766181 c 0.92206,0 1.666179,-0.177941 2.248533,-0.566177 0.566178,-0.388236 1.002943,-0.873531 1.326473,-1.488238 0.32353,-0.614707 0.533825,-1.29412 0.647061,-2.070592 0.09706,-0.760296 0.161765,-1.520591 0.161765,-2.297063 0,-0.808825 -0.09706,-1.488238 -0.291177,-2.054416 -0.194119,-0.566177 -0.452943,-1.019119 -0.776473,-1.375002 -0.339706,-0.355883 -0.727942,-0.614707 -1.180884,-0.776472 -0.452942,-0.161765 -0.922061,-0.242648 -1.439709,-0.242648 -0.938237,0 -1.682356,0.194118 -2.248533,0.582354 -0.582354,0.388236 -1.01912,0.873531 -1.34265,1.488238 -0.32353,0.614707 -0.533824,1.310297 -0.630883,2.070592 -0.113236,0.776472 -0.161765,1.536768 -0.161765,2.297063 0,0.808825 0.08088,1.504415 0.275,2.054416 0.194118,0.566177 0.452942,1.019119 0.776472,1.375002 0.32353,0.355883 0.727943,0.614707 1.180885,0.776472 0.452942,0.161765 0.938237,0.226471 1.455885,0.226471 z m 0.194118,-2.669122 c -0.129412,0 -0.242648,-0.03235 -0.32353,-0.09706 -0.09706,-0.06471 -0.161765,-0.161765 -0.210295,-0.307354 -0.06471,-0.145588 -0.09706,-0.339706 -0.113235,-0.582354 -0.03235,-0.242647 -0.03235,-0.550001 -0.03235,-0.92206 0,-0.582354 0,-1.116179 0.03235,-1.569121 0.01618,-0.452942 0.06471,-0.825001 0.129412,-1.132355 0.06471,-0.291177 0.161765,-0.517648 0.291177,-0.679413 0.129412,-0.161765 0.291177,-0.242647 0.517648,-0.242647 0.258824,0 0.436765,0.145588 0.533824,0.420589 0.09706,0.291177 0.145589,0.792648 0.145589,1.504414 0,0.598531 -0.01618,1.116179 -0.03235,1.569121 -0.03235,0.452942 -0.06471,0.825001 -0.129412,1.116178 -0.06471,0.307354 -0.161765,0.533825 -0.291177,0.69559 -0.129412,0.161765 -0.307354,0.226471 -0.517648,0.226471 z m 8.460286,2.669122 c 0.420589,0 0.873531,-0.06471 1.326473,-0.194118 0.452942,-0.129412 0.857354,-0.355883 1.229414,-0.679413 0.372059,-0.307353 0.679413,-0.727942 0.92206,-1.24559 0.226471,-0.517648 0.355883,-1.164708 0.355883,-1.94118 0,-0.582354 -0.08088,-1.083826 -0.210294,-1.472062 -0.145589,-0.388236 -0.339707,-0.711766 -0.582354,-0.938237 -0.258824,-0.226471 -0.550001,-0.388236 -0.889708,-0.485295 -0.355883,-0.09706 -0.727942,-0.145588 -1.132355,-0.145588 -0.242647,0 -0.485295,0.04853 -0.744119,0.129412 -0.258824,0.08088 -0.436765,0.161765 -0.550001,0.242647 0,-0.226471 0.03235,-0.452942 0.06471,-0.64706 0.03235,-0.194118 0.09706,-0.355883 0.194118,-0.485295 0.09706,-0.129412 0.258824,-0.242647 0.452942,-0.307353 0.194118,-0.06471 0.469119,-0.113236 0.825002,-0.113236 0.09706,0 0.242647,0.01618 0.420589,0.03235 0.161765,0.01618 0.339706,0.03235 0.533824,0.06471 0.194118,0.03235 0.37206,0.06471 0.533825,0.09706 0.161765,0.03235 0.307353,0.08088 0.420589,0.113236 l 0.695589,-2.394122 c -0.291177,-0.129412 -0.679413,-0.258824 -1.148531,-0.355883 -0.485295,-0.09706 -1.067649,-0.145589 -1.763239,-0.145589 -1.472061,0 -2.58824,0.533825 -3.364712,1.601474 -0.776472,1.067649 -1.164708,2.636769 -1.164708,4.675008 0,0.938237 0.08088,1.698533 0.275001,2.280887 0.194118,0.59853 0.452942,1.067649 0.776472,1.407355 0.32353,0.355883 0.695589,0.582354 1.132355,0.711766 0.420589,0.129412 0.889707,0.194118 1.391179,0.194118 z m -0.501472,-3.607359 v -0.339707 c 0,-0.09706 0,-0.242647 0.03235,-0.452942 0.06471,-0.04853 0.145589,-0.09706 0.275001,-0.161765 0.129412,-0.04853 0.242647,-0.08088 0.372059,-0.08088 0.275001,0 0.469119,0.08088 0.582354,0.226471 0.09706,0.161765 0.161765,0.404412 0.161765,0.744119 0,0.32353 -0.06471,0.582354 -0.194118,0.792648 -0.129412,0.210295 -0.32353,0.307354 -0.582354,0.307354 -0.242647,0 -0.404412,-0.08088 -0.501471,-0.242648 -0.09706,-0.161765 -0.145589,-0.420589 -0.145589,-0.792648 z" id="text1" aria-label="2106"/>
  </g>
</svg>