<?xml version="1.0" encoding="utf-8"?>
<!-- Generator: Adobe Illustrator 21.0.2, SVG Export Plug-In . SVG Version: 6.00 Build 0)  -->
<svg version="1.1" id="Слой_1" xmlns="http://www.w3.org/2000/svg" xmlns:xlink="http://www.w3.org/1999/xlink" x="0px" y="0px"
	 viewBox="0 0 158.7 53.9" style="enable-background:new 0 0 158.7 53.9;" xml:space="preserve">
<style type="text/css">
	.st0{fill:#FFFFFF;}
</style>
<path class="st0" d="M19.9,18.1c0.6,0.3,1,0.7,1.4,1.3c0.3,0.5,0.5,1.2,0.5,1.8c0,0.9-0.2,1.8-0.6,2.5c-0.4,0.7-0.9,1.3-1.5,1.8
	c-0.6,0.5-1.4,0.9-2.1,1.3c-0.8,0.3-1.6,0.6-2.4,0.7v0.1c0.6,0.1,1.3,0.2,1.9,0.4c0.6,0.2,1.2,0.5,1.8,0.9c0.6,0.4,1,0.9,1.4,1.4
	c0.4,0.6,0.6,1.4,0.5,2.1c0,1.1-0.3,2.2-0.8,3.2c-0.5,0.9-1.2,1.7-2.1,2.2C17,38.6,16,39,15,39.3c-1,0.3-2.1,0.4-3.2,0.4h-11l0.3-1
	c0.3,0,0.6-0.1,1.1-0.1c0.4,0,0.7-0.1,1.1-0.2c0.3-0.1,0.6-0.3,0.9-0.6c0.2-0.3,0.3-0.6,0.4-1l3.8-16.3l0.1-0.3c0-0.1,0-0.2,0-0.3
	c0-0.2,0-0.4-0.1-0.6c-0.1-0.2-0.3-0.3-0.5-0.4c-0.3-0.2-0.7-0.3-1-0.4c-0.3-0.1-0.6-0.1-1-0.1l0.3-1H16c0.7,0,1.4,0.1,2.1,0.2
	C18.7,17.6,19.4,17.8,19.9,18.1z M15.6,36.3c0.4-0.6,0.8-1.3,1-2c0.2-0.7,0.3-1.5,0.3-2.2c0.1-1-0.4-2-1.1-2.7
	c-0.9-0.7-2.1-1.1-3.2-1h-1.7H9.8L8,36.2c0,0.2,0,0.3-0.1,0.4c0,0.1,0,0.2,0,0.4c0,0.5,0.3,1,0.8,1.2c0.7,0.3,1.4,0.4,2.1,0.4
	c1,0,1.9-0.2,2.8-0.7C14.4,37.5,15,36.9,15.6,36.3z M16.6,25.4c0.5-0.5,0.9-1.2,1.1-1.8c0.2-0.7,0.3-1.5,0.3-2.2
	c0-0.5-0.1-1-0.3-1.4c-0.2-0.4-0.5-0.7-0.8-0.9c-0.4-0.2-0.8-0.4-1.2-0.4c-0.4-0.1-0.9-0.1-1.3-0.1h-1.2h-1.1l-2,8.8h2
	c0.9,0,1.8-0.1,2.7-0.5C15.5,26.4,16.1,26,16.6,25.4L16.6,25.4z"/>
<path class="st0" d="M32,15.4l-4.4,19.1c-0.1,0.4-0.2,0.8-0.3,1.2c-0.1,0.3-0.1,0.7-0.1,1c-0.1,0.4,0.1,0.9,0.4,1.2
	c0.4,0.3,0.8,0.4,1.3,0.3c0.3,0,0.6,0,0.9-0.1c0.3,0,0.6-0.1,0.9-0.2l-0.2,1c-1,0.4-1.7,0.7-2.2,0.8c-0.6,0.2-1.2,0.2-1.7,0.2
	c-0.7,0.1-1.4-0.2-1.9-0.7c-0.4-0.4-0.7-1-0.7-1.6c0-0.3,0-0.5,0.1-0.8c0-0.3,0.1-0.6,0.2-1l3.9-16.7c0.1-0.3,0.1-0.5,0.2-0.7
	c0-0.2,0-0.3,0-0.5c0-0.3,0-0.6-0.2-0.9c-0.1-0.2-0.3-0.4-0.5-0.5c-0.3-0.1-0.6-0.2-0.8-0.2l-1-0.1l0.2-1l5.9-0.3L32,15.4z"/>
<path class="st0" d="M42.9,37.5L42.9,37.5c-0.6,0.4-1.1,0.8-1.5,1.1c-0.4,0.3-0.9,0.6-1.3,0.8c-0.4,0.2-0.9,0.4-1.4,0.5
	c-0.5,0.1-1.1,0.2-1.6,0.2c-0.9,0.1-1.7-0.3-2.4-0.9c-0.6-0.6-0.9-1.5-0.8-2.3c0-0.3,0-0.6,0.1-0.9c0.1-0.5,0.2-1,0.3-1.5l1.2-5
	c0.1-0.5,0.2-0.9,0.3-1.2c0.1-0.3,0.1-0.7,0.1-1c0.1-0.4,0-0.8-0.3-1.2c-0.3-0.3-0.8-0.4-1.2-0.3c-0.3,0-0.6,0.1-0.9,0.1L32.7,26
	l0.2-1c0.7-0.3,1.4-0.6,2.2-0.8c0.5-0.2,1-0.3,1.5-0.3c0.7-0.1,1.3,0.2,1.9,0.6c0.4,0.5,0.6,1.1,0.6,1.7c0,0.3,0,0.5-0.1,0.8
	c0,0.3-0.1,0.7-0.2,1l-1.4,5.8c-0.1,0.4-0.2,0.9-0.3,1.2c-0.1,0.3-0.1,0.6-0.1,0.9c0,0.6,0.1,1.2,0.5,1.7c0.4,0.4,0.9,0.7,1.5,0.6
	c0.7,0,1.4-0.2,2.1-0.5c0.8-0.4,1.5-1,2.1-1.6L46,24.1l2.8-0.2l0.2,0.2l-2.4,10.2c-0.1,0.4-0.2,0.9-0.3,1.3
	c-0.1,0.3-0.1,0.6-0.1,0.9c-0.1,0.4,0.1,0.9,0.4,1.2c0.4,0.2,0.8,0.4,1.3,0.3c0.3,0,0.6,0,0.9-0.1c0.3-0.1,0.6-0.1,0.8-0.2l-0.2,1
	c-0.9,0.4-1.6,0.6-2.2,0.8c-0.5,0.2-1.1,0.3-1.6,0.3c-0.7,0.1-1.4-0.2-1.9-0.7C43.1,38.7,42.9,38.1,42.9,37.5z"/>
<path class="st0" d="M65.1,27c0,1.1-0.4,2.1-1.1,2.9c-0.8,0.9-1.9,1.6-3.1,1.9c-1,0.4-2,0.7-3,0.9c-1.1,0.2-2.2,0.4-3.3,0.5
	c-0.1,1.3,0.2,2.7,0.9,3.8c0.6,0.9,1.6,1.4,2.7,1.3c1,0,2-0.3,2.8-0.8c0.9-0.6,1.7-1.4,2.4-2.4l0.9,0.7c-0.8,1.3-1.9,2.3-3.2,3.1
	c-1.2,0.8-2.6,1.2-4,1.2c-1.6,0.1-3.1-0.5-4.2-1.6c-1.1-1.2-1.6-2.8-1.5-4.5c0-1.3,0.2-2.6,0.6-3.8c0.4-1.2,1-2.3,1.8-3.3
	c0.8-1,1.8-1.8,2.9-2.4c1.2-0.6,2.5-0.9,3.8-0.9c1.2-0.1,2.4,0.2,3.4,0.9C64.7,25.2,65.1,26.1,65.1,27z M62.2,26.6
	c0-0.3,0-0.7-0.2-1c-0.1-0.2-0.2-0.4-0.4-0.5c-0.2-0.1-0.4-0.2-0.6-0.2c-0.2,0-0.4,0-0.7,0c-1.4,0.1-2.7,0.9-3.5,2.1
	c-1.1,1.5-1.8,3.3-2,5.2c0.7-0.1,1.6-0.3,2.5-0.5c0.8-0.2,1.6-0.4,2.3-0.8c0.8-0.4,1.5-1,2-1.8C62,28.3,62.2,27.5,62.2,26.6z"/>
<path class="st0" d="M95.3,38.7l-0.3,1h-5.7c-0.9-2.1-1.8-4-2.6-5.5s-1.7-3.1-2.5-4.8h-2.3l-1.7,7.3c0,0.1,0,0.2,0,0.3
	c0,0.1,0,0.2,0,0.3c0,0.2,0,0.4,0.1,0.6c0.1,0.2,0.3,0.3,0.5,0.4c0.3,0.1,0.7,0.2,1,0.2c0.4,0.1,0.8,0.1,1.2,0.1l-0.3,1h-9.7l0.3-1
	l1.1-0.1c0.3,0,0.7-0.1,1-0.2c0.3-0.1,0.7-0.3,0.9-0.6c0.2-0.3,0.3-0.6,0.4-1l3.8-16.4c0-0.1,0-0.2,0-0.3c0-0.1,0-0.2,0-0.3
	c0-0.2,0-0.4-0.1-0.6c-0.1-0.2-0.3-0.3-0.5-0.4c-0.3-0.1-0.7-0.2-1-0.3c-0.3-0.1-0.7-0.1-1-0.2l0.2-1h10.2c0.8,0,1.7,0.1,2.5,0.3
	c0.7,0.1,1.3,0.4,1.9,0.8c0.6,0.3,1,0.8,1.4,1.3c0.3,0.6,0.5,1.3,0.5,2c0,0.9-0.2,1.9-0.6,2.7c-0.4,0.8-0.9,1.5-1.5,2.1
	c-0.7,0.6-1.4,1.1-2.3,1.5c-0.9,0.4-1.8,0.7-2.8,0.9c0.8,1.6,1.5,2.9,2,3.8s1.1,2.1,1.8,3.4c0.3,0.5,0.6,1,1,1.5
	c0.3,0.3,0.6,0.5,0.9,0.7c0.3,0.2,0.6,0.3,1,0.3C94.6,38.6,94.9,38.6,95.3,38.7z M90.7,21.8c0.1-0.9-0.3-1.9-1-2.5
	c-0.8-0.6-1.8-1-2.8-0.9h-2.6l-2.2,9.8h2.3c3.5,0,6.3-2.8,6.3-6.2C90.8,21.9,90.8,21.9,90.7,21.8z"/>
<path class="st0" d="M105.1,38l-0.2,1c-0.8,0.3-1.5,0.6-2.3,0.8c-0.5,0.1-1,0.2-1.5,0.2c-0.7,0.1-1.4-0.2-1.9-0.7
	c-0.4-0.4-0.6-1-0.6-1.6c0-0.3,0-0.5,0.1-0.8c0-0.3,0.1-0.6,0.2-1l1.7-6.7c0.1-0.4,0.2-0.8,0.3-1.2c0.1-0.4,0.1-0.7,0.1-1.1
	c0.1-0.4,0-0.8-0.3-1.2c-0.3-0.2-0.8-0.3-1.2-0.3c-0.3,0-0.6,0-0.9,0.1c-0.4,0.1-0.7,0.1-0.9,0.2l0.2-1c0.7-0.3,1.5-0.6,2.2-0.8
	c0.5-0.2,1-0.2,1.6-0.3c0.7-0.1,1.4,0.2,1.9,0.6c0.4,0.5,0.6,1.1,0.6,1.7c0,0.3,0,0.5-0.1,0.8c0,0.3-0.1,0.7-0.2,1l-1.7,6.7
	c-0.1,0.4-0.2,0.8-0.3,1.2c-0.1,0.3-0.1,0.7-0.1,1c-0.1,0.5,0.1,0.9,0.4,1.2c0.4,0.3,0.8,0.4,1.3,0.3c0.3,0,0.6,0,0.9-0.1
	C104.5,38.2,104.8,38.1,105.1,38z M106.2,17.7c0,0.6-0.2,1.1-0.6,1.6c-0.4,0.4-0.9,0.7-1.5,0.7c-0.5,0-1-0.2-1.4-0.6
	c-0.4-0.4-0.6-0.9-0.6-1.5c0-0.6,0.2-1.1,0.6-1.5c0.3-0.4,0.9-0.6,1.4-0.6c0.6,0,1.1,0.2,1.5,0.6C106,16.7,106.2,17.2,106.2,17.7z"
	/>
<path class="st0" d="M117.2,37.6h-0.1l-0.9,0.8c-0.4,0.3-0.7,0.6-1.2,0.8c-0.4,0.3-0.9,0.5-1.4,0.7c-1.9,0.6-3.9,0.1-5.2-1.4
	c-0.9-1.3-1.4-2.9-1.3-4.5c0-1.3,0.2-2.6,0.7-3.8c0.4-1.2,1.1-2.3,1.9-3.3c0.8-0.9,1.8-1.7,2.9-2.3c1.1-0.6,2.3-0.9,3.5-0.9
	c0.7,0,1.5,0.1,2.2,0.3c0.6,0.2,1.2,0.4,1.8,0.7l1.2-5.4c0.1-0.3,0.1-0.5,0.1-0.7c0-0.2,0-0.3,0-0.5c0-0.3-0.1-0.6-0.2-0.9
	c-0.2-0.2-0.4-0.4-0.6-0.5c-0.3-0.1-0.7-0.2-1.1-0.2c-0.4,0-0.8-0.1-1.2-0.1l0.2-1l6.4-0.3l0.2,0.2l-4.4,19
	c-0.1,0.3-0.2,0.8-0.3,1.2c-0.1,0.3-0.1,0.7-0.1,1c-0.1,0.4,0.1,0.9,0.4,1.2c0.4,0.2,0.8,0.4,1.3,0.3c0.3,0,0.6,0,0.9-0.1
	c0.3,0,0.6-0.1,0.9-0.2l-0.2,1c-0.7,0.3-1.4,0.6-2.2,0.8c-0.5,0.1-1.1,0.2-1.6,0.2c-0.7,0-1.3-0.2-1.8-0.6
	C117.4,38.8,117.1,38.2,117.2,37.6z M119.4,27.4c0-0.3-0.1-0.6-0.2-0.9c-0.1-0.3-0.3-0.6-0.5-0.8c-0.3-0.3-0.6-0.5-0.9-0.7
	c-0.4-0.2-0.9-0.3-1.4-0.3c-0.8,0-1.6,0.3-2.3,0.8c-0.8,0.5-1.4,1.2-1.9,2c-0.6,0.9-1,1.9-1.3,3c-0.3,1.1-0.5,2.3-0.5,3.5
	c0,0.6,0,1.1,0.1,1.7c0.1,0.5,0.2,0.9,0.4,1.4c0.2,0.4,0.5,0.7,0.9,0.9c0.5,0.2,1,0.4,1.5,0.3c0.7,0,1.3-0.2,1.9-0.5
	c0.9-0.5,1.6-1.1,2.3-1.8L119.4,27.4z"/>
<path class="st0" d="M135.9,37.6h-0.1l-0.9,0.7c-0.4,0.3-0.8,0.6-1.2,0.8c-0.5,0.3-1,0.5-1.5,0.7c-0.5,0.2-1.1,0.3-1.6,0.3
	c-1.4,0.1-2.7-0.5-3.5-1.6c-0.9-1.3-1.3-2.9-1.3-4.5c0-1.3,0.2-2.6,0.7-3.8c0.5-1.2,1.1-2.3,2-3.3c0.8-0.9,1.8-1.7,2.9-2.3
	c1.1-0.6,2.3-0.9,3.5-0.8c0.7,0,1.5,0.1,2.1,0.3c0.6,0.2,1.1,0.4,1.6,0.7l2.9-0.7l0.2,0.2l-2.7,12.5c-0.3,1.7-0.8,3.3-1.6,4.8
	c-0.5,1.2-1.2,2.2-2.1,3.1c-0.8,0.8-1.8,1.3-2.8,1.7c-1.1,0.3-2.3,0.5-3.5,0.5c-0.7,0-1.4-0.1-2.1-0.2c-0.5-0.1-0.9-0.3-1.3-0.5
	c-0.3-0.2-0.5-0.4-0.6-0.8c-0.1-0.3-0.2-0.5-0.2-0.8c0-0.4,0.1-0.9,0.4-1.2c0.3-0.3,0.7-0.5,1.2-0.5c0.4,0,0.7,0.1,1,0.3
	c0.3,0.2,0.5,0.5,0.7,0.7c0.2,0.3,0.4,0.7,0.5,1c0.2,0.4,0.3,0.7,0.4,0.8h0.5c1.4,0,2.8-0.6,3.7-1.7c0.6-0.7,1.1-1.6,1.5-2.4
	C135.3,40.3,135.7,38.9,135.9,37.6z M138,27.4c0-0.3-0.1-0.6-0.1-0.9c-0.1-0.3-0.3-0.6-0.5-0.9c-0.2-0.3-0.6-0.5-0.9-0.6
	c-0.4-0.2-0.9-0.2-1.4-0.2c-0.8,0-1.6,0.3-2.3,0.7c-0.8,0.5-1.5,1.2-2,2c-0.6,0.9-1,1.9-1.3,3c-0.3,1.1-0.5,2.3-0.5,3.4
	c0,0.6,0,1.2,0.1,1.7c0.1,0.5,0.2,0.9,0.5,1.4c0.2,0.4,0.5,0.7,0.9,0.9c0.4,0.2,0.9,0.4,1.4,0.3c0.8,0,1.5-0.2,2.2-0.7
	c0.8-0.5,1.5-1,2.1-1.6L138,27.4z"/>
<path class="st0" d="M158,27c0,1.1-0.4,2.1-1.1,2.9c-0.8,0.9-1.9,1.6-3.1,1.9c-1,0.4-2,0.7-3,0.9c-1,0.2-2.1,0.4-3.3,0.5
	c-0.1,1.3,0.2,2.7,0.9,3.8c0.6,0.9,1.6,1.4,2.7,1.3c1,0,2-0.3,2.8-0.8c1-0.6,1.8-1.4,2.5-2.4l0.9,0.7c-0.8,1.3-1.9,2.3-3.2,3.1
	c-1.2,0.8-2.6,1.2-4,1.2c-1.6,0.1-3.1-0.5-4.3-1.6c-1-1.2-1.5-2.8-1.4-4.4c0-1.3,0.2-2.6,0.6-3.8c0.4-1.2,1-2.3,1.8-3.3
	c0.8-1,1.7-1.8,2.8-2.4c1.2-0.6,2.5-0.9,3.8-0.9c1.2-0.1,2.4,0.2,3.4,0.9C157.6,25.2,158,26.1,158,27z M155,26.6c0-0.3,0-0.7-0.2-1
	c-0.1-0.2-0.3-0.4-0.4-0.5c-0.2-0.1-0.4-0.2-0.6-0.2c-0.2,0-0.4,0-0.6,0c-1.4,0.1-2.7,0.9-3.5,2.1c-1.1,1.5-1.8,3.3-2,5.2
	c0.7-0.1,1.6-0.3,2.5-0.5c0.8-0.2,1.6-0.4,2.3-0.8c0.8-0.4,1.5-1,2-1.8C154.9,28.3,155.1,27.5,155,26.6z"/>
<path class="st0" d="M11.5,50.7v1.7c-1.2,0.7-2.6,1-4,0.9c-1.1,0-2.2-0.2-3.1-0.7c-1.7-1-2.8-2.8-2.8-4.8c0-1.5,0.6-3,1.7-4
	c1.1-1.1,2.6-1.7,4.2-1.6c1.3,0,2.6,0.3,3.8,0.9v1.7c-1.1-0.7-2.4-1.1-3.8-1.1c-1.2,0-2.3,0.4-3.1,1.2c-1.6,1.6-1.6,4.3,0,5.9
	c0,0,0,0,0,0c0.8,0.8,2,1.2,3.1,1.2C9,51.9,10.4,51.5,11.5,50.7z"/>
<path class="st0" d="M21.1,42.3h1.6v6.3c0,0.6,0,1.3-0.2,1.9c-0.1,0.4-0.3,0.7-0.5,1.1c-0.2,0.3-0.4,0.5-0.7,0.8
	c-1,0.8-2.2,1.2-3.4,1.1c-1.2,0.1-2.5-0.3-3.4-1.1c-0.3-0.2-0.5-0.5-0.7-0.8c-0.2-0.3-0.3-0.6-0.5-1c-0.1-0.6-0.2-1.3-0.2-1.9v-6.2
	h1.6v6.2c-0.1,0.7,0.1,1.5,0.4,2.1c0.2,0.4,0.6,0.8,1.1,1c0.5,0.3,1.1,0.4,1.7,0.4c0.8,0,1.6-0.2,2.3-0.7c0.3-0.2,0.5-0.6,0.7-0.9
	c0.2-0.6,0.2-1.2,0.2-1.8V42.3z"/>
<path class="st0" d="M27.5,48.7l-1.2-0.7c-0.6-0.4-1.2-0.8-1.6-1.4c-0.3-0.4-0.5-1-0.5-1.5c0-0.8,0.3-1.6,0.9-2.1
	c0.6-0.6,1.5-0.8,2.3-0.8c0.9,0,1.8,0.3,2.5,0.8v1.8c-0.7-0.7-1.6-1.1-2.5-1.1c-0.4,0-0.9,0.1-1.3,0.4c-0.3,0.2-0.5,0.5-0.5,0.9
	c0,0.3,0.1,0.7,0.4,0.9c0.3,0.4,0.7,0.7,1.2,0.9l1.2,0.7c1.2,0.6,1.9,1.7,2,3c0,0.8-0.3,1.6-0.9,2.2c-0.6,0.6-1.4,0.9-2.3,0.8
	c-1.1,0-2.1-0.4-3-1v-2c0.7,1,1.8,1.6,2.9,1.6c0.4,0,0.9-0.1,1.2-0.4c0.3-0.2,0.5-0.6,0.5-1C29,49.9,28.5,49.3,27.5,48.7z"/>
<path class="st0" d="M31.3,42.3h9.2v1.4h-3.8v9.6H35v-9.6h-3.8V42.3z"/>
<path class="st0" d="M46.2,42.1c1.6,0,3.1,0.5,4.2,1.6c2.2,2.2,2.2,5.7,0.1,7.9c0,0,0,0-0.1,0.1c-1.2,1.1-2.7,1.6-4.3,1.6
	c-1.5,0-3-0.5-4.1-1.6c-1.1-1-1.7-2.5-1.7-4c0-1.5,0.6-3,1.7-4.1C43.1,42.6,44.7,42.1,46.2,42.1z M46.3,43.6c-1.1,0-2.3,0.4-3.1,1.2
	c-0.8,0.8-1.2,1.9-1.2,3c0,1.1,0.4,2.2,1.2,3c1.7,1.6,4.4,1.6,6.1,0c0.8-0.8,1.3-1.9,1.2-3c0-1.1-0.4-2.2-1.2-2.9
	C48.5,44.1,47.4,43.6,46.3,43.6z"/>
<path class="st0" d="M62.7,42.3h1.5v10.9h-1.6v-8.5L59.3,49H59l-3.4-4.2v8.5H54v-11h1.5l3.6,4.5L62.7,42.3z"/>
<path class="st0" d="M78.7,42.3h1.6v10.9h-1.6v-4.8h-6.2v4.8H71V42.3h1.6V47h6.2V42.3z"/>
<path class="st0" d="M88.1,42.1c1.6,0,3.1,0.5,4.2,1.6c1.1,1,1.7,2.5,1.7,4c0,1.5-0.6,3-1.7,4c-1.2,1.1-2.7,1.6-4.3,1.6
	c-1.5,0-3-0.5-4.1-1.6c-1.1-1-1.7-2.5-1.7-4c0-1.5,0.6-3,1.7-4.1C85,42.6,86.5,42.1,88.1,42.1z M88.2,43.6c-1.1,0-2.3,0.4-3.1,1.2
	c-1.6,1.7-1.6,4.3,0,6c1.7,1.6,4.4,1.6,6.1,0c0.8-0.8,1.3-1.9,1.2-3c0-1.1-0.4-2.2-1.2-2.9C90.4,44.1,89.3,43.6,88.2,43.6z"/>
<path class="st0" d="M104.6,42.3h1.5v10.9h-1.6v-8.5l-3.4,4.2h-0.3l-3.4-4.2v8.5h-1.6V42.3h1.5l3.6,4.5L104.6,42.3z"/>
<path class="st0" d="M108.5,42.3h6.2v1.4H110V47h4.5v1.4H110v3.4h4.8v1.4h-6.3L108.5,42.3z"/>
<path class="st0" d="M119.2,48.7l-1.2-0.7c-0.6-0.4-1.2-0.8-1.6-1.4c-0.3-0.4-0.5-1-0.5-1.5c0-0.8,0.3-1.6,0.9-2.1
	c0.6-0.6,1.5-0.8,2.3-0.8c0.9,0,1.8,0.3,2.5,0.8v1.8c-0.7-0.7-1.6-1.1-2.6-1.1c-0.4,0-0.9,0.1-1.3,0.4c-0.3,0.2-0.5,0.5-0.5,0.9
	c0,0.3,0.1,0.7,0.4,0.9c0.3,0.4,0.7,0.7,1.2,0.9l1.2,0.7c1.2,0.6,1.9,1.7,2,3c0,0.8-0.3,1.6-0.9,2.1c-0.6,0.6-1.4,0.9-2.3,0.8
	c-1.1,0-2.1-0.3-3-1v-2c0.7,1,1.8,1.6,2.9,1.6c0.4,0,0.9-0.1,1.2-0.4c0.3-0.2,0.5-0.6,0.5-1C120.6,49.9,120.2,49.3,119.2,48.7z"/>
<path class="st0" d="M140.7,46h1v6.1h3.2V53h-4.2L140.7,46z"/>
<path class="st0" d="M145.7,46h1v6.1h3.2V53h-4.2V46z"/>
<path class="st0" d="M156.8,51.4v1.1c-0.8,0.4-1.7,0.6-2.6,0.6c-0.7,0-1.4-0.1-2-0.5c-0.5-0.3-1-0.8-1.3-1.3
	c-0.3-0.5-0.5-1.2-0.5-1.8c0-1,0.4-1.9,1.1-2.6c0.7-0.7,1.7-1,2.7-1c0.9,0,1.7,0.2,2.5,0.6v1c-0.7-0.4-1.6-0.7-2.4-0.7
	c-0.7,0-1.5,0.2-2,0.8c-1.1,1-1.1,2.7,0,3.8c0,0,0,0,0,0c0.5,0.5,1.3,0.8,2,0.7C155.2,52.2,156.1,51.9,156.8,51.4z"/>
<polygon class="st0" points="31.4,15.4 42,3.8 44.1,6.2 48,0.5 55.5,8.8 59.4,3.5 62.8,8.8 66.7,4 79.8,17.5 79.1,18.2 67.1,8.3 
	69.1,12.1 66,10.1 71.5,18.6 59,9 63.2,15.2 57.3,10.7 58.4,12.6 57.5,12.4 58.1,14.6 55.9,12.7 48.4,18.8 54.8,10 47.9,4 50.1,9.7 
	47.9,8.6 50.9,14.8 45.3,10.2 42.4,11.9 47.6,19.7 40.5,15.2 30.7,24.5 42.1,9.3 41,8 31.5,16.5 "/>
</svg>
