<?xml version="1.0" encoding="UTF-8" standalone="no"?>
<!-- Created with Inkscape (http://www.inkscape.org/) -->

<svg
   width="6.9444447in"
   height="6.9444447in"
   viewBox="0 0 6.9444446 6.9444446"
   id="SVGRoot"
   version="1.1"
   xml:space="preserve"
   inkscape:version="1.2.2 (1:1.2.2+202305151914+b0a8486541)"
   sodipodi:docname="menuicon.svg"
   xmlns:inkscape="http://www.inkscape.org/namespaces/inkscape"
   xmlns:sodipodi="http://sodipodi.sourceforge.net/DTD/sodipodi-0.dtd"
   xmlns="http://www.w3.org/2000/svg"
   xmlns:svg="http://www.w3.org/2000/svg"><sodipodi:namedview
     inkscape:document-units="in"
     inkscape:zoom="0.5"
     inkscape:cx="126"
     inkscape:cy="604"
     id="namedview1"
     pagecolor="#505050"
     bordercolor="#ffffff"
     borderopacity="0.34901961"
     inkscape:showpageshadow="0"
     inkscape:pageopacity="0"
     inkscape:pagecheckerboard="0"
     inkscape:deskcolor="#555555"
     inkscape:window-width="1920"
     inkscape:window-height="1011"
     inkscape:window-x="1920"
     inkscape:window-y="32"
     inkscape:window-maximized="1"
     inkscape:current-layer="g320"
     showgrid="false"><inkscape:page
       x="-3.6260769e-07"
       y="1.0962837e-08"
       width="6.9444442"
       height="6.9444447"
       id="page3"
       margin="0"
       bleed="0" /></sodipodi:namedview><defs
     id="defs1" /><g
     inkscape:label="Layer 1"
     inkscape:groupmode="layer"
     id="layer1"
     transform="translate(-10.049613,-8.5393773)"><g
       style="fill:none"
       id="g320"
       transform="matrix(0.34722222,0,0,0.34722222,9.355168,7.8449326)"
       inkscape:export-filename="menuicon.svg"
       inkscape:export-xdpi="73.728004"
       inkscape:export-ydpi="73.728004"><path
         fill-rule="evenodd"
         clip-rule="evenodd"
         d="M 22,12 C 22,17.5228 17.5228,22 12,22 6.47715,22 2,17.5228 2,12 2,6.47715 6.47715,2 12,2 17.5228,2 22,6.47715 22,12 Z M 8,13 c 0.55228,0 1,-0.4477 1,-1 0,-0.5523 -0.44772,-1 -1,-1 -0.55228,0 -1,0.4477 -1,1 0,0.5523 0.44772,1 1,1 z m 4,0 c 0.5523,0 1,-0.4477 1,-1 0,-0.5523 -0.4477,-1 -1,-1 -0.5523,0 -1,0.4477 -1,1 0,0.5523 0.4477,1 1,1 z m 4,0 c 0.5523,0 1,-0.4477 1,-1 0,-0.5523 -0.4477,-1 -1,-1 -0.5523,0 -1,0.4477 -1,1 0,0.5523 0.4477,1 1,1 z"
         fill="#1c274c"
         id="path1"
         style="fill:#fffefe;fill-opacity:0.94509798;stroke:none" /></g></g></svg>
